<?xml version="1.0" encoding="UTF-8"?><svg id="Camada_2" xmlns="http://www.w3.org/2000/svg" viewBox="0 0 108.81 18"><defs><style>.cls-1{fill:#fff;}</style></defs><g id="Camada_1-2"><g><path class="cls-1" d="M20.16,.88c-1.73-.55-3.87-.88-6.21-.88s-4.48,.33-6.21,.88C3.16,2.36,0,5.43,0,8.97c0,4.99,6.25,9.03,13.95,9.03s13.96-4.04,13.96-9.03c0-3.54-3.16-6.61-7.75-8.09m-6.21,13.23c-1.15,0-2.09-2.26-2.14-5.1,.69,.07,1.41,.1,2.14,.1s1.45-.03,2.15-.1c-.05,2.84-1,5.1-2.15,5.1m-2-7.33c.31-1.99,1.09-3.41,2-3.41s1.69,1.41,2,3.41c-.64,.06-1.31,.09-2,.09s-1.35-.03-2-.09m5.22-.15c-.47-3.13-1.73-5.38-3.22-5.38s-2.75,2.25-3.22,5.38c-2.83-.44-4.82-1.45-4.82-2.62,0-1.58,3.6-2.86,8.04-2.86s8.04,1.28,8.04,2.86c0,1.18-1.98,2.18-4.82,2.62M2.04,8.64c0-1.53,.59-2.96,1.61-4.19-.01,.09-.02,.17-.02,.26,0,1.92,2.89,3.56,6.91,4.16,0,.14,0,.29,0,.44,0,3.58,.99,6.6,2.36,7.65-6.09-.37-10.86-3.95-10.86-8.3m12.97,8.3c1.37-1.04,2.36-4.07,2.36-7.65,0-.15,0-.29,0-.44,4.02-.6,6.91-2.24,6.91-4.16,0-.09,0-.17-.02-.26,1.03,1.23,1.61,2.66,1.61,4.19,0,4.36-4.77,7.93-10.86,8.3"/><polygon class="cls-1" points="42.79 2.57 31.74 2.57 31.74 5.02 35.82 5.02 35.82 15.43 38.71 15.43 38.71 5.02 42.79 5.02 42.79 2.57"/><path class="cls-1" d="M50.25,2.19c-3.76,0-6.82,3.05-6.82,6.81s3.05,6.82,6.82,6.82,6.81-3.05,6.81-6.82-3.05-6.81-6.81-6.81m3.34,8.87c-.44,1.13-1.45,1.97-2.67,2.19-.22,.04-.44,.06-.67,.06s-.46-.02-.67-.06c-1.22-.21-2.23-1.06-2.67-2.19-.25-.64-.39-1.33-.39-2.06s.14-1.42,.39-2.06c.44-1.12,1.45-1.97,2.67-2.18,.22-.04,.44-.06,.67-.06s.45,.02,.67,.06c1.22,.22,2.23,1.06,2.67,2.18,.25,.64,.39,1.33,.39,2.06s-.14,1.43-.39,2.06"/><polygon class="cls-1" points="57.11 2.57 60.52 2.57 63.7 8.1 66.88 2.57 70.28 2.57 65.14 10.68 65.14 15.43 62.25 15.43 62.25 10.68 57.11 2.57"/><path class="cls-1" d="M70.34,9c0-3.76,3.05-6.81,6.81-6.81s6.81,3.05,6.81,6.81-3.05,6.82-6.81,6.82-6.81-3.05-6.81-6.82m6.81,4.31c.23,0,.45-.02,.67-.06,1.22-.22,2.23-1.06,2.67-2.19,.25-.64,.39-1.33,.39-2.06s-.14-1.43-.39-2.06c-.44-1.13-1.45-1.97-2.67-2.19-.22-.04-.44-.06-.67-.06s-.45,.02-.67,.06c-1.22,.22-2.23,1.06-2.67,2.19-.25,.64-.39,1.33-.39,2.06s.14,1.43,.39,2.06c.44,1.13,1.45,1.97,2.67,2.19,.22,.04,.44,.06,.67,.06"/><path class="cls-1" d="M104.54,12.6h-5.47l-1.05,2.83h-3.22l5.21-12.86h3.6l5.21,12.86h-3.22l-1.06-2.83Zm-.84-2.25l-1.89-5.08-1.9,5.08h3.79Z"/><polygon class="cls-1" points="95.64 2.57 84.6 2.57 84.6 5.02 88.68 5.02 88.68 15.43 91.57 15.43 91.57 5.02 95.64 5.02 95.64 2.57"/></g></g></svg>